<?xml version="1.0" encoding="UTF-8"?>
<svg xmlns="http://www.w3.org/2000/svg" xmlns:xlink="http://www.w3.org/1999/xlink" version="1.1" viewBox="0 0 1000 1000">
  <!-- Generator: Adobe Illustrator 30.3.0, SVG Export Plug-In . SVG Version: 2.1.3 Build 182)  -->
  <defs>
    <style>
      .st0 {
        fill: url(#linear-gradient);
      }

      .st0, .st1, .st2, .st3, .st4, .st5, .st6, .st7, .st8, .st9, .st10, .st11 {
        stroke-miterlimit: 10;
      }

      .st0, .st2, .st3, .st4, .st5, .st6, .st7, .st8, .st9, .st10, .st11 {
        stroke: #684d12;
      }

      .st1 {
        fill: #19843a;
        stroke: #231f20;
      }

      .st2 {
        fill: url(#linear-gradient4);
      }

      .st3 {
        fill: url(#linear-gradient6);
      }

      .st4 {
        fill: url(#linear-gradient3);
      }

      .st5 {
        fill: url(#linear-gradient5);
      }

      .st6 {
        fill: url(#linear-gradient7);
      }

      .st7 {
        fill: url(#linear-gradient8);
      }

      .st8 {
        fill: url(#linear-gradient1);
      }

      .st9 {
        fill: url(#linear-gradient2);
      }

      .st10 {
        fill: url(#linear-gradient9);
      }

      .st11 {
        fill: url(#linear-gradient10);
      }
    </style>
    <linearGradient id="linear-gradient" x1="142.34" y1="555.19" x2="874.04" y2="555.19" gradientUnits="userSpaceOnUse">
      <stop offset="0" stop-color="#ff0"/>
      <stop offset=".08" stop-color="#fee804"/>
      <stop offset=".18" stop-color="#fdd608"/>
      <stop offset=".29" stop-color="#fdca0b"/>
      <stop offset=".4" stop-color="#fdc70c"/>
      <stop offset=".72" stop-color="#ffa800"/>
      <stop offset=".95" stop-color="#ffdc00"/>
    </linearGradient>
    <linearGradient id="linear-gradient1" x1="114.08" y1="466.04" x2="478.57" y2="466.04" xlink:href="#linear-gradient"/>
    <linearGradient id="linear-gradient2" x1="563.46" y1="808.83" x2="812.06" y2="808.83" xlink:href="#linear-gradient"/>
    <linearGradient id="linear-gradient3" x1="762.28" y1="284.49" x2="803.68" y2="284.49" xlink:href="#linear-gradient"/>
    <linearGradient id="linear-gradient4" x1="647.42" y1="587.26" x2="688.82" y2="587.26" xlink:href="#linear-gradient"/>
    <linearGradient id="linear-gradient5" x1="395.58" y1="269.96" x2="436.98" y2="269.96" xlink:href="#linear-gradient"/>
    <linearGradient id="linear-gradient6" x1="260.15" y1="480.06" x2="301.55" y2="480.06" xlink:href="#linear-gradient"/>
    <linearGradient id="linear-gradient7" x1="647.42" y1="221.25" x2="747.27" y2="221.25" xlink:href="#linear-gradient"/>
    <linearGradient id="linear-gradient8" x1="316.43" y1="188.61" x2="416.28" y2="188.61" xlink:href="#linear-gradient"/>
    <linearGradient id="linear-gradient9" x1="409.86" y1="825.73" x2="464.1" y2="825.73" xlink:href="#linear-gradient"/>
    <linearGradient id="linear-gradient10" x1="470.52" y1="203.89" x2="590.34" y2="203.89" xlink:href="#linear-gradient"/>
  </defs>
  <g id="Layer_3">
    <circle class="st1" cx="494.06" cy="505.63" r="461.04"/>
  </g>
  <g id="Layer_1">
    <g>
      <path class="st0" d="M850.77,602.81c-32.93,46.56-94.6,98.58-142.96,131.17-34.41,23.19-80.11,45.68-123.81,45.16-56.84-.67-93.71-40.79-105.06-88.98-35.48,22.14-70.69,42.49-108,60.98-8.78,4.35-18.21,6.18-27.98,7.95l-131.53,23.91c-21.06,3.83-40.75,7.33-61.91,10.2-1.85.25-5.5-.36-7.19-.82.4-5.47,4.86-8.32,10.14-10.61l154.26-67.12c49.21-21.41,96.1-45.81,141.44-73.1l29.46-17.73c2.22-26.06,12.44-57.62,23.17-81.76.66-1.48,3.77-2.99,5.27-2.89,7.26.47,2.23,14.68.79,19.63-4.92,16.96-8.54,33.42-9.2,51.88l25.31-17.15c23.86-16.16,53.79-39.76,70.96-61.72-5.99-15.33-13.28-28.46-21.53-42.61-16.11-27.64-30.21-55.4-40.79-85.22-3.21-9.06-7.58-16.35-14.4-24.13,2.26-10.46,12.5-56.1,17.25-62.03.81-1.02,5.44-.87,6.51.31l60.38,66.85c1.24,1.37,1.61,4.12,1.05,5.22-.55,1.11-3.78,2.53-5.38,2.11l-19.56-5.1c30.78,66.17,55.51,86.25,37.72,162.31-2.82,12.04-6.52,23.22-12.32,34.22-8.28,13.28-18.19,24.36-30.04,35.25-19.61,18.01-40.53,33.94-62.28,50.03,13.36,25.07,40.11,40.55,70.13,41.92,43.07,1.95,86.28-18.61,121.03-40.22,39.35-24.47,74.5-52.78,107.42-84.13,13.34-12.71,25.58-24.95,37.46-39.18-5.87-8.84-13.9-14.86-23.72-19.34-30.27-13.8-56.87-4.58-90.83-10.8-13.73-2.52-25.81-7.91-35.17-17.37-13.02-13.17-19.23-30.26-18.05-48.31,1.9-29.14,12.95-56.67,31.83-79.97,16.08-19.84,41.34-36.06,69.31-28.15,17.25,4.88,30.63,14.71,42.11,27.16,49.72,53.97,63.14,134.22,42.91,201.29-3.3,10.95-7.28,21.11-14.22,30.91ZM804.16,451.58c-10.6-19.5-36.68-49.42-63.47-41.24-8.99,2.75-16.27,9.22-21.64,16.48-1.8,2.43.18,7.54,2.03,9.75,18.2,21.72,56.53,10.44,83.08,15.01Z"/>
      <path class="st8" d="M174.02,328.9c-1.35,8.44-3.8,16.21-6.74,24-4.72,12.51-9.15,24.51-12.78,37.34-4.88,17.24-6.59,47.75,10.18,59.27,6.99,4.8,15.72,2.76,19.96-4.03l11.95-19.12c3.22,3.15,3.88,5.76,3.4,8.81-2.4,15.34-8.09,29.84-17.16,42.72-5.41,7.68-13.64,11.05-23.84,10.51-12.64,32.49-34.52,91.54-13.96,122.17,11.71,17.44,35.99,20.64,56.47,16.37,38.51-8.02,69.01-25.65,102.71-44.06,45.28-24.74,89.04-50.28,131.52-78.69,7.51-5.03,13.33-10.11,18.87-16.74-8.56-21.11-48.96-41.67-70.38-52.49-54-27.27-90.18-45.14-128.63-90.59-8.16-9.65-16.15-18.51-24.94-27.53-5.07-5.2-10.9-8.68-18.39-12.16l6.03-66.8c3.28-1.13,7.46-.53,10.74,1.1l52.19,25.91c13.69,6.8,26.29,13.58,39.52,21.27-5.02,11.92-24.13,6.88-38.13,8.94,16.31,18.01,34.38,32.91,55.85,44.03l55.05,28.5c15.98,8.27,31.22,16.31,46.09,25.99,20.41,13.28,33.25,32.09,36.99,54.89s1.95,47.77-4.96,70.96c-4.39,14.71-12.82,27.05-25.28,37.16-34.75,28.21-114.93,75.73-156.47,99.2-23.57,13.32-48.31,26.31-74.53,33.78-31.66,9.02-66.88,8.27-85.53-20.12-9.51-14.47-14.15-30.14-15.3-47.32-3.11-46.52,11.35-96.4,32.12-139.36-25.58-24.8-13.51-73.79-2.1-102.56,1.31-3.31,23.13-57.67,29.5-51.4Z"/>
      <path class="st9" d="M563.46,871.35c1.72-11.4,7.04-21.22,12.33-31.29l32.57-14.13,203.7-79.63c-2.11,10.32-8.15,29.03-18.75,31.16-77.49,28.87-152.73,59.66-229.85,93.89Z"/>
      <path class="st4" d="M801.71,293.53c-1.12.36-1.78,2.1-2.45,3.11-2.05,3.06-4.06,6.16-6.55,8.92-6.33,7.03-14.65,5.71-17.41-3.15-2.25-7.25-2.17-13.95-1.05-21.38,1.61-10.69,4.58-21.27,7.3-31.73.74-2.84,3.33-7.52,2.53-10.46-1.02-3.74-4.73.48-5.47,1.99-11.26,23.18-21.06,52.88-13.91,78.38,1.77,6.33,5.6,11.24,13.01,12.29,7.57,1.07,12.96-2.83,15.65-8.73,2.3-5.05,4.22-10.24,6.05-15.46.92-2.61,1.82-5.24,2.73-7.85.46-1.33,1.14-2.71,1.44-4.07.22-1.01.04-1.53-1.02-1.85-.32-.09-.6-.08-.86,0Z"/>
      <path class="st2" d="M686.86,596.29c-1.12.36-1.78,2.1-2.45,3.11-2.05,3.06-4.06,6.16-6.55,8.92-6.33,7.03-14.65,5.71-17.41-3.15-2.25-7.25-2.17-13.95-1.05-21.38,1.61-10.69,4.58-21.27,7.3-31.73.74-2.84,3.33-7.52,2.53-10.46-1.02-3.74-4.73.48-5.47,1.99-11.26,23.18-21.06,52.88-13.91,78.38,1.77,6.33,5.6,11.24,13.01,12.29,7.57,1.07,12.96-2.83,15.65-8.73,2.3-5.05,4.22-10.24,6.05-15.46.92-2.61,1.82-5.24,2.73-7.85.46-1.33,1.14-2.71,1.44-4.07.22-1.01.04-1.53-1.02-1.85-.32-.09-.6-.08-.86,0Z"/>
      <path class="st5" d="M435.02,279c-1.12.36-1.78,2.1-2.45,3.11-2.05,3.06-4.06,6.16-6.55,8.92-6.33,7.03-14.65,5.71-17.41-3.15-2.25-7.25-2.17-13.95-1.05-21.38,1.61-10.69,4.58-21.27,7.3-31.73.74-2.84,3.33-7.52,2.53-10.46-1.02-3.74-4.73.48-5.47,1.99-11.26,23.18-21.06,52.88-13.91,78.38,1.77,6.33,5.6,11.24,13.01,12.29,7.57,1.07,12.96-2.83,15.65-8.73,2.3-5.05,4.22-10.24,6.05-15.46.92-2.61,1.82-5.24,2.73-7.85.46-1.33,1.14-2.71,1.44-4.07.22-1.01.04-1.53-1.02-1.85-.32-.09-.6-.08-.86,0Z"/>
      <path class="st3" d="M299.59,489.1c-1.12.36-1.78,2.1-2.45,3.11-2.05,3.06-4.06,6.16-6.55,8.92-6.33,7.03-14.65,5.71-17.41-3.15-2.25-7.25-2.17-13.95-1.05-21.38,1.61-10.69,4.58-21.27,7.3-31.73.74-2.84,3.33-7.52,2.53-10.46-1.02-3.74-4.73.48-5.47,1.99-11.26,23.18-21.06,52.88-13.91,78.38,1.77,6.33,5.6,11.24,13.01,12.29,7.57,1.07,12.96-2.83,15.65-8.73,2.3-5.05,4.22-10.24,6.05-15.46.92-2.61,1.82-5.24,2.73-7.85.46-1.33,1.14-2.71,1.44-4.07.22-1.01.04-1.53-1.02-1.85-.32-.09-.6-.08-.86,0Z"/>
      <path class="st6" d="M740.58,203.91c-1.91-1.9-3.82-3.79-5.72-5.7-6.15-6.18-11.51-5.89-14.58,2.09-4.02,10.47-6.6,21.46-9.45,32.31-2.23,8.47-3.56,17.17-6.02,25.57-1.22,4.15-4.09,7.87-6.21,11.78-.59-.15-1.17-.31-1.76-.46-.5-1.13-1.28-2.22-1.46-3.39-2.46-16.87-10.05-31.96-18.1-46.86-2-3.7-4.27-7.9-9.86-2.99-1.21,1.06-5.04.79-6.7-.25-4.28-2.69-9.25-5.47-11.73-9.46-5.26-8.46,4.09-13.51,6.99-20.07,1.99-4.5,6.46-4.05,9.7-2.13,5.66,3.35,11.66,6.84,15.85,11.59,9.88,11.19,14.09,24.99,17.21,39.06.35,1.56.8,3.11,1.61,6.2,3.2-14.03,5.51-26.54,9.03-38.73,2.19-7.58,5.54-15.04,9.58-21.92,4.07-6.91,10.09-9.13,15.31-7.51,5.98,1.85,13.86,12.12,12.91,17.84-.74,4.46-2.74,8.74-4.18,13.09-.81-.02-1.62-.05-2.43-.07Z"/>
      <path class="st7" d="M409.59,171.27c-1.91-1.9-3.82-3.79-5.72-5.7-6.15-6.18-11.51-5.89-14.58,2.09-4.02,10.47-6.6,21.46-9.45,32.31-2.23,8.47-3.56,17.17-6.02,25.57-1.22,4.15-4.09,7.87-6.21,11.78-.59-.15-1.17-.31-1.76-.46-.5-1.13-1.28-2.22-1.46-3.39-2.46-16.87-10.05-31.96-18.1-46.86-2-3.7-4.27-7.9-9.86-2.99-1.21,1.06-5.04.79-6.7-.25-4.28-2.69-9.25-5.47-11.73-9.46-5.26-8.46,4.09-13.51,6.99-20.07,1.99-4.5,6.46-4.05,9.7-2.13,5.66,3.35,11.66,6.84,15.85,11.59,9.88,11.19,14.09,24.99,17.21,39.06.35,1.56.8,3.11,1.61,6.2,3.2-14.03,5.51-26.54,9.03-38.73,2.19-7.58,5.54-15.04,9.58-21.92,4.07-6.91,10.09-9.13,15.31-7.51,5.98,1.85,13.86,12.12,12.91,17.84-.74,4.46-2.74,8.74-4.18,13.09-.81-.02-1.62-.05-2.43-.07Z"/>
      <path class="st10" d="M409.86,870.4c2.31-2.67,4.67-5.31,6.92-8.02,8.54-10.27,17.2-20.46,25.47-30.92,2.53-3.2,4.41-7.03,5.77-10.84,1.6-4.48,1.66-9.29-2.32-12.89-3.83-3.47-8.7-2.95-13.18-1.48-3.43,1.12-6.56,3.11-9.85,4.73-4.11-14.75,10.84-32.08,26.35-30.81,7.24.59,11.64,3.93,13.67,10.63,2.29,7.58,1.7,15.19-1.04,22.47-9.48,25.16-27.23,43.87-50.58,58.09-.4-.32-.8-.63-1.2-.95Z"/>
      <path class="st11" d="M589.57,168.89c-2.15-4.7-8.2-6.54-14.4-7.82-.98-.21-2.13-.43-3.35-.46-4.99-.13-9.99-.3-14.98-.47-13.52-.47-27.54-.94-41.31-.6-6.21.16-14.07,3.98-18.3,8.88-4.34,5.03-7.56,10.78-10.96,16.87-1.45,2.59-2.94,5.27-4.59,8-.67,1.1-.67,2.46,0,3.56.66,1.1,1.89,1.8,3.23,1.81,6.26.09,12.42-.02,18.5-.13,4.41-.08,8.79-.16,13.13-.16,9.11,0,19.51.32,30.01,2.31-7.84,5.14-16.12,9.71-24.19,14.16-11.62,6.41-37.92,18.2-48.69,26.53-1.26.98-3.94,4.3-2.9,6,1.82,2.95,22.14-1.69,25.25-2.26,15.81-2.91,30.26-9.19,44.57-15.99,18.71-8.89,32.74-24.12,42.8-41.27.4-.68.84-1.33,1.29-1.99.38-.56.76-1.13,1.12-1.7,3.24-5.16,5.94-10.59,3.79-15.29Z"/>
    </g>
  </g>
</svg>